<?xml version="1.0" encoding="utf-8"?>
<!-- Generator: Adobe Illustrator 16.0.0, SVG Export Plug-In . SVG Version: 6.00 Build 0)  -->
<!DOCTYPE svg PUBLIC "-//W3C//DTD SVG 1.1//EN" "http://www.w3.org/Graphics/SVG/1.1/DTD/svg11.dtd">
<svg version="1.1" id="Слой_1" xmlns="http://www.w3.org/2000/svg" xmlns:xlink="http://www.w3.org/1999/xlink" x="0px" y="0px"
	 width="841.89px" height="595.281px" viewBox="0 0 841.89 595.281" enable-background="new 0 0 841.89 595.281"
	 xml:space="preserve">
<g>
	<g>
		<g>
			<path fill="#3399CC" d="M481.773,197.652c-2.463,0-4.834-0.977-6.557-2.746c-1.766-1.719-2.744-4.092-2.744-6.556
				c0-2.466,0.979-4.837,2.744-6.558c3.441-3.488,9.674-3.488,13.115,0c1.766,1.721,2.742,4.092,2.742,6.558
				c0,2.464-0.977,4.836-2.742,6.556C486.611,196.675,484.24,197.652,481.773,197.652z"/>
		</g>
		<g>
			<path fill="#3399CC" d="M514.189,197.652c-2.463,0-4.836-0.977-6.559-2.746c-1.766-1.719-2.742-4.092-2.742-6.556
				c0-2.466,0.977-4.837,2.742-6.558c3.443-3.488,9.674-3.488,13.117,0c1.766,1.721,2.742,4.092,2.742,6.558
				c0,2.464-0.977,4.836-2.742,6.556C519.025,196.675,516.652,197.652,514.189,197.652z"/>
		</g>
		<g>
			<path fill="#3399CC" d="M509.585,225.556c-2.465,0-4.836-0.977-6.605-2.698c-1.719-1.767-2.742-4.14-2.742-6.604
				c0-2.466,1.023-4.836,2.742-6.605c3.488-3.44,9.674-3.44,13.162,0c1.721,1.769,2.746,4.14,2.746,6.605
				c0,2.464-1.025,4.837-2.746,6.604C514.375,224.579,512.001,225.556,509.585,225.556z"/>
		</g>
		<g>
			<path fill="#3399CC" d="M449.359,197.652c-2.465,0-4.836-0.977-6.557-2.746c-1.768-1.719-2.744-4.092-2.744-6.556
				c0-2.466,0.977-4.837,2.744-6.558c3.441-3.488,9.627-3.488,13.115-0.048c1.768,1.769,2.744,4.188,2.744,6.606
				c0,2.418-0.977,4.836-2.699,6.556C454.197,196.675,451.824,197.652,449.359,197.652z"/>
		</g>
		<g>
			<path fill="#3399CC" d="M421.083,197.652c-2.418,0-4.836-0.977-6.558-2.746c-1.719-1.719-2.743-4.092-2.743-6.556
				c0-2.466,1.024-4.837,2.743-6.558c3.442-3.488,9.673-3.488,13.162,0c1.721,1.721,2.697,4.092,2.697,6.558
				c0,2.464-0.977,4.836-2.697,6.556C425.919,196.675,423.55,197.652,421.083,197.652z"/>
		</g>
		<g>
			<path fill="#3399CC" d="M504.935,253.459c-2.465,0-4.836-0.976-6.559-2.745c-1.766-1.719-2.742-4.092-2.742-6.556
				c0-2.466,0.977-4.836,2.742-6.605c3.441-3.44,9.674-3.44,13.115,0c1.766,1.769,2.744,4.14,2.744,6.605
				c0,2.464-0.979,4.837-2.744,6.556C509.769,252.483,507.351,253.459,504.935,253.459z"/>
		</g>
		<g>
			<path fill="#3399CC" d="M338.88,416.232c-18.527,0-33.599-15.119-33.599-33.699c0-18.584,15.072-33.703,33.599-33.703
				c18.525,0,33.597,15.119,33.597,33.703C372.477,401.113,357.405,416.232,338.88,416.232z M338.88,367.431
				c-8.268,0-14.997,6.775-14.997,15.102c0,8.324,6.729,15.096,14.997,15.096s14.994-6.771,14.994-15.096
				C353.874,374.207,347.148,367.431,338.88,367.431z"/>
		</g>
		<g>
			<path fill="#3399CC" d="M461.548,416.232c-18.523,0-33.596-15.119-33.596-33.699c0-18.584,15.072-33.703,33.596-33.703
				c18.529,0,33.6,15.119,33.6,33.703C495.148,401.113,480.078,416.232,461.548,416.232z M461.548,367.431
				c-8.268,0-14.994,6.775-14.994,15.102c0,8.324,6.727,15.096,14.994,15.096c8.27,0,14.998-6.771,14.998-15.096
				C476.546,374.207,469.818,367.431,461.548,367.431z"/>
		</g>
		<g>
			<path fill="#3399CC" d="M520.662,362.75c-0.039,0-0.076,0-0.111,0l-233.282-2.137c-4.566-0.055-8.417-3.117-9.09-7.631
				l-24.034-161.084c-0.4-2.677,0.386-5.321,2.155-7.369c1.767-2.05,4.337-3.154,7.044-3.154h129.697
				c5.137,0,9.301,4.165,9.301,9.301s-4.165,9.301-9.301,9.301H274.134l21.275,142.726l217.73,2.547l33.15-156.501
				c0.912-4.299,4.705-7.374,9.1-7.374h23.676c5.137,0,9.301,4.165,9.301,9.301s-4.164,9.301-9.301,9.301h-16.139l-33.17,155.993
				C528.847,360.277,525.048,362.75,520.662,362.75z"/>
		</g>
	</g>
	<g>
		<path fill="#3399CC" d="M348.487,296.732c1.696,0.396,2.887,0.875,3.573,1.437c0.984,0.8,1.477,1.837,1.477,3.111
			c0,1.345-0.541,2.457-1.622,3.336c-1.327,1.063-3.256,1.595-5.788,1.595h-9.083v-0.487c0.826,0,1.386-0.077,1.681-0.231
			c0.294-0.153,0.501-0.354,0.619-0.6c0.119-0.246,0.178-0.853,0.178-1.819v-11.602c0-0.967-0.059-1.575-0.178-1.826
			c-0.118-0.25-0.327-0.45-0.626-0.6s-0.857-0.224-1.674-0.224v-0.488h8.569c2.048,0,3.498,0.183,4.351,0.547
			c0.853,0.365,1.525,0.91,2.017,1.635c0.492,0.726,0.738,1.497,0.738,2.314c0,0.861-0.312,1.628-0.936,2.3
			C351.159,295.803,350.061,296.337,348.487,296.732z M343.688,297.405v5.735l-0.013,0.658c0,0.475,0.121,0.834,0.362,1.075
			s0.6,0.362,1.075,0.362c0.703,0,1.351-0.156,1.945-0.468c0.593-0.312,1.048-0.765,1.364-1.358
			c0.316-0.593,0.475-1.254,0.475-1.984c0-0.834-0.193-1.584-0.58-2.247s-0.918-1.127-1.595-1.391S345.033,297.396,343.688,297.405z
			 M343.688,296.376c1.248,0,2.168-0.141,2.762-0.422c0.593-0.281,1.048-0.677,1.364-1.187s0.475-1.16,0.475-1.951
			s-0.156-1.439-0.468-1.944c-0.313-0.505-0.758-0.89-1.338-1.154s-1.512-0.391-2.795-0.382V296.376z"/>
		<path fill="#3399CC" d="M367.3,293.885v9.65c0,0.941,0.088,1.527,0.264,1.761s0.532,0.38,1.068,0.441v0.475h-5.023v-1.647
			c-0.589,0.703-1.178,1.215-1.767,1.535s-1.248,0.481-1.978,0.481c-0.694,0-1.312-0.214-1.853-0.64
			c-0.54-0.426-0.903-0.925-1.087-1.496s-0.277-1.568-0.277-2.992v-4.892c0-0.932-0.086-1.512-0.257-1.74
			c-0.172-0.229-0.53-0.378-1.075-0.448v-0.488h5.023v8.424c0,0.879,0.042,1.446,0.125,1.7c0.083,0.256,0.215,0.449,0.396,0.58
			c0.18,0.133,0.389,0.198,0.626,0.198c0.316,0,0.602-0.083,0.857-0.251c0.352-0.229,0.773-0.689,1.266-1.384v-6.592
			c0-0.932-0.086-1.512-0.257-1.74c-0.172-0.229-0.53-0.378-1.075-0.448v-0.488H367.3z"/>
		<path fill="#3399CC" d="M376.067,306.712l-3.981-9.136c-0.598-1.38-1.04-2.228-1.325-2.544s-0.63-0.536-1.035-0.659v-0.488h6.552
			v0.488c-0.431,0.018-0.734,0.101-0.91,0.25s-0.264,0.33-0.264,0.541c0,0.334,0.22,0.993,0.659,1.978l2.109,4.825l1.437-3.73
			c0.519-1.328,0.778-2.25,0.778-2.769c0-0.325-0.108-0.584-0.323-0.778c-0.216-0.193-0.596-0.299-1.141-0.316v-0.488h4.126v0.488
			c-0.404,0.044-0.734,0.2-0.989,0.468c-0.255,0.269-0.681,1.18-1.279,2.736l-3.52,9.136c-0.888,2.285-1.547,3.691-1.978,4.219
			c-0.606,0.738-1.367,1.107-2.281,1.107c-0.729,0-1.321-0.209-1.773-0.626c-0.453-0.418-0.679-0.921-0.679-1.51
			c0-0.51,0.156-0.932,0.468-1.266c0.312-0.334,0.696-0.501,1.153-0.501c0.439,0,0.793,0.141,1.062,0.422
			c0.268,0.281,0.406,0.717,0.415,1.305c0.009,0.334,0.048,0.55,0.119,0.646s0.171,0.145,0.303,0.145
			c0.211,0,0.435-0.127,0.672-0.382c0.352-0.369,0.765-1.213,1.239-2.531L376.067,306.712z"/>
		<path fill="#3399CC" d="M395.474,293.885v9.769c0,0.87,0.101,1.426,0.303,1.668s0.598,0.38,1.187,0.415v0.475h-6.658v-0.475
			c0.545-0.018,0.949-0.176,1.213-0.475c0.176-0.202,0.264-0.738,0.264-1.608v-7.198c0-0.87-0.101-1.426-0.303-1.668
			c-0.202-0.241-0.593-0.38-1.173-0.415v-0.488H395.474z M393.628,287.913c0.571,0,1.055,0.2,1.45,0.6
			c0.396,0.4,0.593,0.881,0.593,1.444s-0.2,1.042-0.6,1.437s-0.881,0.593-1.443,0.593s-1.042-0.198-1.437-0.593
			s-0.593-0.875-0.593-1.437s0.198-1.043,0.593-1.444C392.586,288.113,393.065,287.913,393.628,287.913z"/>
		<path fill="#3399CC" d="M403.199,293.885v1.595c0.633-0.686,1.239-1.184,1.819-1.496s1.204-0.468,1.872-0.468
			c0.8,0,1.463,0.222,1.991,0.666c0.527,0.444,0.879,0.996,1.055,1.655c0.141,0.501,0.211,1.463,0.211,2.887v4.799
			c0,0.949,0.086,1.54,0.257,1.773c0.172,0.233,0.53,0.38,1.075,0.441v0.475h-6.236v-0.475c0.466-0.062,0.8-0.255,1.002-0.58
			c0.141-0.22,0.211-0.765,0.211-1.635v-5.484c0-1.011-0.04-1.648-0.119-1.912s-0.213-0.468-0.402-0.613
			c-0.189-0.146-0.398-0.218-0.626-0.218c-0.756,0-1.459,0.541-2.109,1.622v6.605c0,0.923,0.085,1.507,0.257,1.753
			c0.171,0.246,0.49,0.4,0.956,0.462v0.475h-6.236v-0.475c0.519-0.053,0.888-0.22,1.107-0.501c0.149-0.193,0.224-0.765,0.224-1.714
			v-6.961c0-0.932-0.085-1.512-0.257-1.74c-0.171-0.229-0.529-0.378-1.074-0.448v-0.488H403.199z"/>
		<path fill="#3399CC" d="M418.743,306.581l-4.153-9.558c-0.501-1.151-0.892-1.881-1.173-2.188
			c-0.202-0.229-0.501-0.382-0.896-0.461v-0.488h6.552v0.488c-0.413,0-0.694,0.075-0.844,0.224
			c-0.211,0.193-0.316,0.422-0.316,0.686c0,0.325,0.193,0.936,0.58,1.833l2.03,4.627l1.622-3.994
			c0.466-1.143,0.699-1.951,0.699-2.426c0-0.272-0.1-0.494-0.297-0.666c-0.197-0.171-0.547-0.266-1.049-0.283v-0.488h4.035v0.488
			c-0.387,0.053-0.703,0.198-0.949,0.435s-0.615,0.936-1.107,2.096l-4.114,9.677H418.743z"/>
		<path fill="#3399CC" d="M432.494,293.516c1.072,0,2.069,0.277,2.992,0.831s1.623,1.34,2.104,2.36
			c0.479,1.02,0.718,2.135,0.718,3.348c0,1.75-0.444,3.213-1.331,4.391c-1.072,1.424-2.554,2.136-4.443,2.136
			c-1.854,0-3.283-0.65-4.285-1.951s-1.502-2.808-1.502-4.522c0-1.766,0.512-3.306,1.535-4.62S430.708,293.516,432.494,293.516z
			 M432.546,294.452c-0.449,0-0.834,0.169-1.154,0.508s-0.531,1.006-0.633,2.004s-0.151,2.384-0.151,4.159
			c0,0.94,0.062,1.819,0.185,2.637c0.097,0.624,0.303,1.099,0.619,1.424s0.678,0.488,1.082,0.488c0.395,0,0.725-0.11,0.988-0.33
			c0.343-0.299,0.571-0.717,0.686-1.252c0.176-0.836,0.264-2.523,0.264-5.063c0-1.495-0.084-2.521-0.25-3.079
			c-0.168-0.558-0.414-0.964-0.738-1.219C433.214,294.544,432.916,294.452,432.546,294.452z"/>
		<path fill="#3399CC" d="M444.991,293.885v9.769c0,0.87,0.101,1.426,0.304,1.668c0.201,0.242,0.597,0.38,1.186,0.415v0.475h-6.657
			v-0.475c0.545-0.018,0.949-0.176,1.213-0.475c0.176-0.202,0.264-0.738,0.264-1.608v-7.198c0-0.87-0.102-1.426-0.304-1.668
			c-0.202-0.241-0.593-0.38-1.173-0.415v-0.488H444.991z M443.145,287.913c0.571,0,1.055,0.2,1.45,0.6
			c0.396,0.4,0.594,0.881,0.594,1.444s-0.2,1.042-0.601,1.437c-0.399,0.396-0.881,0.593-1.443,0.593s-1.042-0.198-1.437-0.593
			c-0.396-0.396-0.594-0.875-0.594-1.437s0.197-1.043,0.594-1.444C442.103,288.113,442.583,287.913,443.145,287.913z"/>
		<path fill="#3399CC" d="M457.74,303.035l0.408,0.316c-0.58,1.09-1.303,1.9-2.168,2.432c-0.866,0.531-1.787,0.798-2.762,0.798
			c-1.645,0-2.958-0.62-3.942-1.858c-0.984-1.24-1.477-2.729-1.477-4.47c0-1.679,0.448-3.155,1.345-4.43
			c1.081-1.538,2.57-2.307,4.469-2.307c1.274,0,2.288,0.321,3.039,0.962c0.752,0.642,1.127,1.358,1.127,2.149
			c0,0.501-0.151,0.901-0.454,1.2c-0.304,0.299-0.701,0.448-1.193,0.448c-0.519,0-0.947-0.171-1.285-0.514
			c-0.339-0.343-0.548-0.954-0.626-1.833c-0.053-0.554-0.181-0.94-0.383-1.16s-0.439-0.33-0.712-0.33
			c-0.422,0-0.782,0.224-1.081,0.672c-0.457,0.677-0.686,1.714-0.686,3.111c0,1.16,0.185,2.27,0.554,3.329s0.874,1.848,1.517,2.366
			c0.482,0.378,1.055,0.566,1.713,0.566c0.431,0,0.84-0.101,1.227-0.303S457.212,303.597,457.74,303.035z"/>
		<path fill="#3399CC" d="M470.107,299.607h-6.764c0.079,1.635,0.514,2.926,1.305,3.875c0.607,0.73,1.336,1.095,2.189,1.095
			c0.527,0,1.006-0.147,1.437-0.441s0.892-0.824,1.384-1.589l0.449,0.29c-0.669,1.362-1.407,2.327-2.215,2.894
			c-0.81,0.567-1.745,0.851-2.809,0.851c-1.828,0-3.213-0.703-4.152-2.109c-0.757-1.134-1.135-2.54-1.135-4.219
			c0-2.057,0.557-3.693,1.668-4.911c1.112-1.217,2.415-1.826,3.909-1.826c1.248,0,2.331,0.512,3.25,1.536
			C469.542,296.076,470.036,297.594,470.107,299.607z M466.863,298.723c0-1.415-0.076-2.386-0.23-2.914
			c-0.153-0.527-0.394-0.927-0.719-1.2c-0.184-0.158-0.431-0.237-0.738-0.237c-0.457,0-0.83,0.224-1.12,0.672
			c-0.519,0.782-0.778,1.854-0.778,3.216v0.462H466.863z"/>
	</g>
	<g>
		<path fill="#3399CC" d="M361.801,442.907h-1.919c-0.352,0-0.674-0.073-0.967-0.22c-0.566-0.283-1.045-0.801-1.436-1.553
			c-0.527-1.035-0.869-2.451-1.025-4.248c-0.664,0.82-1.182,1.401-1.553,1.743c-0.537,0.498-0.986,0.747-1.348,0.747
			c-0.186,0-0.42-0.029-0.703-0.088l-1.787-0.352c-0.762-0.156-1.23-0.269-1.406-0.337s-0.264-0.19-0.264-0.366
			c0-0.264,0.339-1.096,1.018-2.498c0.679-1.4,1.169-2.268,1.472-2.6c0.244-0.264,0.679-0.605,1.304-1.025
			c0.371-0.254,0.898-0.581,1.582-0.981l0.776-0.454c-0.029-0.137-0.051-0.275-0.066-0.418c-0.015-0.141-0.022-0.275-0.022-0.402
			c0-0.371,0.085-0.838,0.256-1.398c0.171-0.563,0.476-1.258,0.916-2.088l1.406,9.141c0.225,1.436,0.518,2.407,0.879,2.915
			c0.234,0.332,0.557,0.498,0.967,0.498h1.919V442.907z M358.417,422.37l-1.611,2.725l-2.08-1.172l-1.172,2.314l-2.725-1.494
			l1.523-2.578l2.168,1.084l1.274-2.241L358.417,422.37z M356.103,434.63l-0.293-1.758c-0.313,0.146-0.557,0.264-0.732,0.352
			c-0.537,0.283-0.967,0.547-1.289,0.791c-0.234,0.195-0.43,0.376-0.586,0.542c-0.195,0.215-0.293,0.376-0.293,0.483
			c0,0.137,0.171,0.244,0.513,0.322s0.679,0.117,1.011,0.117c0.215,0,0.439-0.061,0.674-0.184
			C355.341,435.175,355.673,434.953,356.103,434.63z"/>
		<path fill="#3399CC" d="M374.252,442.892c-1.025,0-2.231-0.2-3.618-0.601c-1.221-0.352-2.295-0.767-3.223-1.245
			c-0.566,0.85-1.265,1.406-2.095,1.67c-0.4,0.127-0.947,0.19-1.641,0.19h-2.9v-3.984h2.9c0.879,0,1.577-0.107,2.095-0.322
			c0.664-0.273,1.123-0.747,1.377-1.421c0.557-1.24,1.27-2.261,2.139-3.062c0.771-0.713,1.426-1.069,1.963-1.069
			c0.498,0,1.113,0.752,1.846,2.256c0.771,1.592,1.157,3.057,1.157,4.395V442.892z M371.513,438.468c0-0.215-0.21-0.586-0.63-1.113
			c-0.469-0.586-0.874-0.879-1.216-0.879c-0.381,0-0.703,0.439-0.967,1.318c0.508,0.195,0.894,0.342,1.157,0.439
			c0.791,0.293,1.235,0.439,1.333,0.439C371.406,438.673,371.513,438.605,371.513,438.468z"/>
		<path fill="#3399CC" d="M382.397,442.907h-9.17v-3.984h7.705c-0.107-0.664-0.303-1.226-0.586-1.685
			c-0.146-0.254-0.488-0.693-1.025-1.318l1.172-3.486c0.732,0.83,1.233,1.699,1.501,2.607s0.403,2.256,0.403,4.043V442.907z
			 M381.958,429.694c-0.088,0.313-0.205,0.542-0.352,0.688c-0.107,0.107-0.273,0.195-0.498,0.264l-3.164,0.967
			c0.195-0.352,0.366-0.594,0.513-0.725c0.146-0.133,0.4-0.267,0.762-0.403c-0.273-0.176-0.471-0.339-0.593-0.491
			c-0.122-0.15-0.183-0.3-0.183-0.446c0-0.127,0.039-0.271,0.117-0.433c0.078-0.16,0.181-0.319,0.308-0.476
			c0.635-0.85,1.265-1.274,1.89-1.274c0.186,0,0.334,0.061,0.447,0.184c0.112,0.121,0.168,0.28,0.168,0.476
			c0,0.156-0.022,0.29-0.066,0.403c-0.044,0.111-0.134,0.28-0.271,0.505c-0.488-0.244-0.82-0.366-0.996-0.366
			s-0.352,0.044-0.527,0.132c-0.117,0.059-0.225,0.137-0.322,0.234c0,0.127,0.234,0.322,0.703,0.586s0.806,0.396,1.011,0.396
			C381.03,429.914,381.381,429.84,381.958,429.694z"/>
		<path fill="#3399CC" d="M389.428,442.907h-2.051c-1.143,0-1.968-0.469-2.476-1.406c-0.566-1.035-0.85-2.778-0.85-5.229v-4.175
			c0-0.947-0.132-1.685-0.396-2.212c-0.127-0.254-0.42-0.62-0.879-1.099l1.582-3.662c0.566,0.781,0.962,1.553,1.187,2.314
			c0.264,0.889,0.396,2.021,0.396,3.398v2.886c0,2.041,0.137,3.457,0.41,4.248c0.215,0.635,0.557,0.952,1.025,0.952h2.051V442.907z"
			/>
		<path fill="#3399CC" d="M398.569,442.907h-10.166v-3.984h8.789c0-0.85-0.024-1.455-0.073-1.816
			c-0.078-0.557-0.239-1.04-0.483-1.45c-0.313,0.605-0.732,1.069-1.26,1.392s-1.089,0.483-1.685,0.483
			c-0.781,0-1.44-0.259-1.978-0.776s-0.806-1.167-0.806-1.948c0-1.152,0.352-2.52,1.055-4.102c0.869-1.738,1.65-2.607,2.344-2.607
			c1.025,0,1.992,0.894,2.9,2.681s1.362,3.677,1.362,5.669V442.907z M397.177,423.38l-1.611,2.988l-2.08-1.172l-1.172,2.314
			l-2.725-1.494l1.523-2.842l2.168,1.084l1.23-2.373L397.177,423.38z M395.39,433.048c-0.264-0.459-0.496-0.779-0.696-0.959
			c-0.2-0.182-0.417-0.271-0.652-0.271c-0.293,0-0.557,0.132-0.791,0.396s-0.352,0.571-0.352,0.923c0,0.225,0.09,0.412,0.271,0.564
			c0.181,0.15,0.413,0.227,0.696,0.227c0.225,0,0.452-0.066,0.681-0.197C394.777,433.597,395.058,433.371,395.39,433.048z"/>
		<path fill="#3399CC" d="M418.725,437.238l-1.172,3.369c-1.514,0.371-2.754,0.791-3.721,1.26c-0.898,0.439-1.724,0.996-2.476,1.67
			c-0.488,0.439-1.206,1.201-2.153,2.285l-0.879-0.322c0-0.645,0.166-1.294,0.498-1.948c0.254-0.508,0.703-1.177,1.348-2.007
			c-0.918-0.918-1.523-1.587-1.816-2.007s-0.439-0.835-0.439-1.245c0-0.547,0.376-1.499,1.128-2.856s1.399-2.285,1.941-2.783
			s1.179-0.747,1.912-0.747c0.693,0,1.301,0.146,1.824,0.439s1.096,0.82,1.721,1.582l-1.963,3.252
			c-0.459-0.518-0.889-0.896-1.289-1.135c-0.4-0.24-0.781-0.359-1.143-0.359c-0.303,0-0.574,0.086-0.813,0.256
			c-0.239,0.172-0.359,0.369-0.359,0.594c0,0.313,0.203,0.637,0.608,0.975c0.405,0.336,1.091,0.754,2.058,1.252
			c1.23-0.586,2.153-0.965,2.769-1.135C416.923,437.455,417.729,437.326,418.725,437.238z"/>
		<path fill="#3399CC" d="M425.551,438.644c0,0.869-0.103,1.662-0.308,2.381c-0.205,0.717-0.601,1.682-1.187,2.893l-0.879-0.352
			c0.234-1.25,0.352-2.266,0.352-3.047c0-0.596-0.049-1.47-0.146-2.622s-0.22-2.292-0.366-3.421
			c-0.146-1.127-0.386-2.473-0.718-4.035c-0.117-0.547-0.176-0.923-0.176-1.128c0-0.303,0.151-0.817,0.454-1.546
			c0.303-0.727,0.728-1.608,1.274-2.644l0.879,5.186c0.322,1.973,0.547,3.682,0.674,5.127
			C425.502,436.549,425.551,437.619,425.551,438.644z"/>
		<path fill="#3399CC" d="M439.614,443.244c0,0.596-0.342,1.385-1.025,2.365c-0.684,0.982-1.484,1.834-2.402,2.557
			c-1.016,0.801-1.885,1.201-2.607,1.201c-0.859,0-1.782-0.244-2.769-0.732c-0.859-0.42-2.202-1.26-4.028-2.52l0.615-0.908
			c0.879,0.586,1.587,0.981,2.124,1.187s1.118,0.308,1.743,0.308c0.674,0,1.348-0.19,2.021-0.571s1.592-1.089,2.754-2.124
			c1.621-1.445,2.432-2.559,2.432-3.34c0-0.391-0.156-0.903-0.469-1.538c-0.352-0.723-0.781-1.323-1.289-1.802l0.82-3.955
			c0.664,0.684,1.177,1.47,1.538,2.358s0.542,1.899,0.542,3.032V443.244z"/>
		<path fill="#3399CC" d="M457.866,442.907c-1.094,0-2.002-0.078-2.725-0.234s-1.436-0.405-2.139-0.747
			c-0.566,0.4-1.072,0.664-1.516,0.791c-0.445,0.127-1.111,0.19-2,0.19h-2.388c-0.654,0-1.172-0.171-1.553-0.513
			s-0.723-0.908-1.025-1.699c-0.537,0.82-1.138,1.406-1.802,1.758c-0.566,0.303-1.245,0.454-2.036,0.454h-2.095v-3.984h2.095
			c1.025,0,1.88-0.288,2.563-0.864c0.889-0.752,1.333-1.895,1.333-3.428l0.967,0.146c-0.02,0.313-0.039,0.669-0.059,1.069
			s-0.029,0.845-0.029,1.333c0,0.498,0.171,0.913,0.513,1.245s0.732,0.498,1.172,0.498h1.802c1.191,0,2.041-0.166,2.549-0.498
			c0.615-0.4,0.923-1.147,0.923-2.241c0-0.234,0.073-0.444,0.22-0.63c0.088-0.107,0.269-0.269,0.542-0.483l0.557-0.439
			c0.02,0.186,0.034,0.438,0.044,0.754c0.01,0.318,0.015,0.525,0.015,0.623c0,0.537-0.078,1.25-0.234,2.139
			c0.361,0.176,0.767,0.327,1.216,0.454s0.923,0.225,1.421,0.293c0-0.332-0.122-0.762-0.366-1.289s-0.366-0.884-0.366-1.069
			c0-0.254,0.034-0.449,0.103-0.586c0.02-0.049,0.127-0.2,0.322-0.454l1.245-1.685c0.264,0.615,0.451,1.174,0.564,1.678
			c0.111,0.502,0.168,1.13,0.168,1.882V442.907z M456.167,428.859l-1.611,2.988l-2.08-1.172l-1.274,2.314l-2.622-1.494l1.523-2.842
			l2.168,1.084l1.23-2.373L456.167,428.859z M453.325,425.387l-1.465,3.047l-2.754-1.465l1.494-2.988L453.325,425.387z"/>
	</g>
</g>
</svg>
